<svg enable-background="new 0 0 64 64" height="512" viewBox="0 0 64 64" width="512" xmlns="http://www.w3.org/2000/svg"><g id="Layer_11"><path d="m57 27c3.309 0 6-2.691 6-6s-2.691-6-6-6-6 2.691-6 6c0 .179.01.364.03.556l-3.53 3.53-5.114-5.114-1.471 7.357 1.583 1.583-3.498 2.762v-9.674c0-5.071-2.925-9.461-7.17-11.603.108-.455.17-.921.17-1.397 0-3.309-2.691-6-6-6-.931 0-1.81.219-2.598.6-2.255-2.168-5.523-3.099-8.641-2.321-4.57 1.142-7.761 5.23-7.761 9.94 0 1.309.247 2.589.733 3.806l.295.738c1.002 2.505 1.077 5.169.212 7.502-.316.851-.701 1.524-1.108 2.238-.569.996-1.154 2.024-1.569 3.541-2.55.227-4.563 2.358-4.563 4.976v.101c0 2.69 2.189 4.879 4.881 4.879h1.23c-.705 1.343-1.111 2.858-1.111 4.443 0 1.871.548 3.682 1.586 5.238l.414.622v13.697h36v-13.697l.414-.621c1.038-1.557 1.586-3.368 1.586-5.239 0-1.143-.208-2.252-.588-3.285l3.676-4.656 1.583 1.583 7.357-1.471-5.114-5.114 3.53-3.53c.192.02.377.03.556.03zm-20-5v12.307l-6 2.25v-4.776l1.728-.432c1.337-.334 2.272-1.531 2.272-2.911v-6.438c0-1.654-1.346-3-3-3h-3v-7.574c4.61 1.311 8 5.55 8 10.574zm-12 34-8.968-6.726c-.019-.347-.032-.704-.032-1.112 0-.458.021-.915.055-1.371l8.945 6.709zm0 2.5v2.5h-8.074l-.698-9.079zm2 0 8.772-6.579-.698 9.079h-8.074zm9-10.249c0 .343-.021.686-.04 1.029l-8.96 6.72v-2.5l8.943-6.708c.036.481.057.967.057 1.459zm-11 2.749-8.625-6.469c.15-.747.332-1.488.574-2.216l-1.897-.632c-.673 2.017-1.017 4.115-1.042 6.317h-4.475l-.285-.428c-.818-1.227-1.25-2.655-1.25-4.129 0-3.559 2.531-6.693 5.925-7.404l4.075 1.529v1.432c0 2.206 1.794 4 4 4h3zm-2-39.574v7.574h-3c-1.654 0-3 1.346-3 3v6.438c0 1.379.935 2.576 2.272 2.911l1.728.432v4.776l-6-2.25v-12.307c0-5.024 3.39-9.263 8-10.574zm6 18.793v3.351c-.734.897-1.832 1.43-3 1.43s-2.266-.532-3-1.43v-3.351l-3.242-.811c-.446-.111-.758-.51-.758-.97v-6.438c0-.551.449-1 1-1h12c.551 0 1 .449 1 1v6.438c0 .46-.312.859-.758.97zm-4-11.219v-7.949c.33-.03.662-.051 1-.051s.67.021 1 .051v7.949zm-3 22c-1.103 0-2-.897-2-2v-.682l3 1.125v-3.279c.897.534 1.928.836 3 .836s2.103-.302 3-.836v3.279l3-1.125v.682c0 1.103-.897 2-2 2zm8-32c0 .208-.029.412-.06.614-1.244-.396-2.566-.614-3.94-.614s-2.696.218-3.94.614c-.031-.202-.06-.406-.06-.614 0-2.206 1.794-4 4-4s4 1.794 4 4zm-24.119 28c-1.589 0-2.881-1.292-2.881-2.88v-.1c0-1.666 1.346-3.02 3-3.02s3 1.346 3 3h2c0-2.202-1.44-4.055-3.421-4.72.344-1.122.805-1.937 1.289-2.784.43-.752.874-1.529 1.247-2.534 1.039-2.799.957-5.975-.23-8.941l-.295-.739c-.392-.979-.59-2.01-.59-3.063 0-3.791 2.569-7.081 6.26-8.003 2.271-.57 4.728.043 6.487 1.557-1.079 1.085-1.747 2.579-1.747 4.227 0 .476.062.942.17 1.397-4.245 2.142-7.17 6.532-7.17 11.603v12.199c-1.758.477-3.303 1.476-4.497 2.801zm4.119 13h4.074l.846 11h-4.92zm27.08 11 .846-11h4.074v11zm5.67-13.428-.285.428h-4.471c-.017-2.15-.364-4.274-1.045-6.316l-1.897.632c.242.725.423 1.466.573 2.216l-8.625 6.468v-8h3c2.206 0 4-1.794 4-4v-1.432l4.075-1.528c3.394.71 5.925 3.844 5.925 7.403 0 1.474-.432 2.902-1.25 4.129zm1.666-9.379c-1.251-1.913-3.152-3.373-5.395-3.988l4.901-3.87 3.743 3.743zm6.913-3.278-8.243-8.243.529-2.643 10.357 10.357zm4.428-10.086-4.257 4.257-2.586-2.586 4.257-4.257-.096-.517c-.051-.277-.075-.507-.075-.726 0-2.206 1.794-4 4-4s4 1.794 4 4-1.794 4-4 4c-.219 0-.449-.024-.726-.075z"/></g></svg>