<svg id="Layer_35" enable-background="new 0 0 64 64" height="512" viewBox="0 0 64 64" width="512" xmlns="http://www.w3.org/2000/svg"><g><path d="m16.926 61h8.074v-2.5l-8.772-6.579z"/><path d="m26 9c1.374 0 2.696.218 3.94.614.031-.202.06-.406.06-.614 0-2.206-1.794-4-4-4s-4 1.794-4 4c0 .208.029.412.06.614 1.244-.396 2.566-.614 3.94-.614z"/><path d="m10 50v11h4.92l-.846-11z"/><path d="m13 34.199v-12.199c0-5.071 2.925-9.461 7.17-11.603-.108-.455-.17-.921-.17-1.397 0-1.648.668-3.142 1.747-4.228-1.759-1.513-4.216-2.127-6.487-1.557-3.691.924-6.26 4.214-6.26 8.004 0 1.053.198 2.084.59 3.063l.295.738c1.187 2.967 1.269 6.142.23 8.941-.373 1.005-.817 1.782-1.247 2.534-.484.847-.945 1.663-1.289 2.784 1.981.666 3.421 2.519 3.421 4.721h-2c0-1.654-1.346-3-3-3s-3 1.354-3 3.02v.101c0 1.587 1.292 2.879 2.881 2.879h2.623c1.193-1.325 2.738-2.324 4.496-2.801z"/><path d="m22 41h8c1.103 0 2-.897 2-2v-.682l-3 1.125v-3.279c-.897.534-1.928.836-3 .836s-2.103-.302-3-.836v3.279l-3-1.125v.682c0 1.103.897 2 2 2z"/><path d="m29 19h3c1.654 0 3 1.346 3 3v6.438c0 1.379-.935 2.576-2.272 2.911l-1.728.432v4.776l6-2.25v-12.307c0-5.024-3.39-9.263-8-10.574z"/><path d="m19 22v6.438c0 .46.312.859.758.97l3.242.811v3.351c.734.897 1.832 1.43 3 1.43s2.266-.533 3-1.429v-3.351l3.242-.811c.446-.111.758-.51.758-.97v-6.439c0-.551-.449-1-1-1h-12c-.551 0-1 .449-1 1z"/><path d="m26 11c-.338 0-.67.021-1 .051v7.949h2v-7.949c-.33-.03-.662-.051-1-.051z"/><path d="m15 22v12.307l6 2.25v-4.776l-1.728-.432c-1.337-.334-2.272-1.531-2.272-2.911v-6.438c0-1.654 1.346-3 3-3h3v-7.574c-4.61 1.311-8 5.55-8 10.574z"/><path d="m39.02 34.205c2.244.615 4.145 2.075 5.395 3.988l3.249-4.115-3.743-3.743z"/><path d="m38.075 36.04-4.075 1.528v1.432c0 2.206-1.794 4-4 4h-3v8l8.624-6.468c-.15-.75-.331-1.491-.573-2.216l1.897-.632c.681 2.042 1.028 4.166 1.045 6.316h4.471l.285-.428c.818-1.227 1.25-2.655 1.25-4.129.001-3.559-2.53-6.693-5.924-7.403z"/><path d="m16 48.162c0 .408.013.765.032 1.112l8.968 6.726v-2.5l-8.945-6.709c-.034.456-.055.913-.055 1.371z"/><path d="m57 17c-2.206 0-4 1.794-4 4 0 .219.024.449.075.726l.096.517-4.257 4.257 2.586 2.586 4.257-4.257.517.096c.277.051.507.075.726.075 2.206 0 4-1.794 4-4s-1.794-4-4-4z"/><path d="m37.08 61h4.92v-11h-4.074z"/><path d="m43.085 26.671 8.244 8.244 2.643-.529-10.358-10.358z"/><path d="m18 39v-1.432l-4.075-1.528c-3.394.71-5.925 3.844-5.925 7.403 0 1.474.432 2.902 1.25 4.129l.285.428h4.475c.025-2.202.37-4.3 1.042-6.316l1.897.632c-.242.727-.424 1.469-.574 2.216l8.625 6.468v-8h-3c-2.206 0-4-1.794-4-4z"/><path d="m27 61h8.074l.698-9.079-8.772 6.579z"/><path d="m27 53.5v2.5l8.96-6.72c.019-.343.04-.685.04-1.029 0-.493-.021-.978-.057-1.459z"/></g></svg>